PathFileType	4	(X/Y/Z)	61_2_62_p1_0-459.trc
DataRate	CameraRate	NumFrames	NumMarkers	Units	OrigDataRate	OrigDataStartFrame	OrigNumFrames
59.0	59.0	6	27	m	59.0	57	460
Frame#	Time	RHip			RKnee			RAnkle			RBigToe			RSmallToe			RHeel			LHip			LKnee			LAnkle			LBigToe			LSmallToe			LHeel			Neck			Head			Nose			RShoulder			RElbow			RWrist			RThumb			RIndex			RPinky			LShoulder			LElbow			LWrist			LThumb			LIndex			LPinky			
		X1	Y1	Z1	X2	Y2	Z2	X3	Y3	Z3	X4	Y4	Z4	X5	Y5	Z5	X6	Y6	Z6	X7	Y7	Z7	X8	Y8	Z8	X9	Y9	Z9	X10	Y10	Z10	X11	Y11	Z11	X12	Y12	Z12	X13	Y13	Z13	X14	Y14	Z14	X15	Y15	Z15	X16	Y16	Z16	X17	Y17	Z17	X18	Y18	Z18	X19	Y19	Z19	X20	Y20	Z20	X21	Y21	Z21	X22	Y22	Z22	X23	Y23	Z23	X24	Y24	Z24	X25	Y25	Z25	X26	Y26	Z26	X27	Y27	Z27	
57	0.9661016949152542	0.34233405337987005	0.5980156893276176	0.9433491469813094	0.34248275854844357	0.7868786736143042	1.3784596181766529	0.3257969620700618	0.9410360176551107	1.7632022050728549	0.3188796746526557	0.7443900527687909	1.830325566869558	0.382897404700329	0.7758084581724283	1.816683974202085	0.2872731787580243	1.016666834758392	1.8138863434030634	0.1403558702998183	0.5883896094775338	0.9528284727652033	0.12387520400946207	0.7770566088499581	1.3927908401162201	0.13246708732109594	0.9032842234736486	1.7739680080747817	0.14750689821404844	0.6892905451577872	1.81400644691101	0.07881645837636032	0.7479682965621616	1.8131312950659908	0.148549300068309	1.0091585208643972	1.844152731779526	0.23024595183298413	0.4850208763636524	0.4246743384297011	0.2333555093386305	0.40702647473150055	0.19111697018750945	0.23242099722107004	0.39314965839156224	0.32643580509596504	0.3902257555469085	0.5790069937177771	0.5151912601404801	0.42170137281850345	0.6379596836603297	0.7750936891224133	0.4310969069708767	0.5337862505483463	1.0025402250026902	0.3668015237989771	0.5120734984691641	1.097760310588636	0.3849121676222229	0.4870598875762322	1.1094793531457878	0.41499604312678645	0.5837129718304688	1.1176931035844928	0.06456074316897878	0.5262962816642847	0.5123652140258695	0.04149684962364448	0.5424930591564916	0.7598094189643514	0.03492981273455925	0.4954533132802127	0.9782588551506144	0.10183527707506898	0.45975191709728713	1.0565906093583546	0.07303201154262257	0.4159163310913962	1.0682019818451223	0.026931384974318826	0.44802002876951563	1.0725994168170738
58	0.9830508474576272	0.3418786119500889	0.5986188969472138	0.9470371064681411	0.34333525714467883	0.7891228776024019	1.3831516141473184	0.3252174179486145	0.9423980280306672	1.7593358882510908	0.3161643216807519	0.7320236083295671	1.8258835626660512	0.3800292849522305	0.7635925909931894	1.8123042976100934	0.28723497951774246	1.0167382449570699	1.813786026932334	0.13986446085053855	0.5891525297662934	0.9562306068294678	0.12391831211234516	0.7768348415477545	1.3927165114097542	0.13231736319154014	0.9036284016829214	1.774115708337459	0.14735307202183595	0.6895822408257114	1.8141959427226109	0.07870687299887465	0.7483601766269613	1.8136289891928108	0.14837914201814195	1.0096304212664609	1.8443060078215925	0.23053881989189384	0.48686098821262375	0.4279679857877317	0.23341405872609636	0.4068195012881781	0.19113517027316	0.23256712726461057	0.3927949555468277	0.3263959626305858	0.3902253696181277	0.5789886620578912	0.5153192123620327	0.42131019907468303	0.6391459668711389	0.778882050992104	0.43121049232067055	0.534163542260219	1.0027558523245255	0.36735879924996784	0.5129920899508612	1.1010263810764103	0.3850306973938485	0.48690754036971234	1.1097149698607918	0.4188765202665059	0.5841111527457857	1.1176205417460643	0.06456309456581165	0.5262901083825621	0.5123830852948617	0.03542493218159799	0.5560960219770449	0.7604182198493405	0.031028090275226624	0.4924089386675354	0.9782236116325383	0.10171306774560736	0.46040288759902254	1.0569242897235784	0.0664710464571232	0.4288069802533943	1.066953130884092	0.028141752861758747	0.4633305540445559	1.074652150067469
59	1.0	0.3419273560565069	0.598643022302653	0.9471903558784904	0.34385897205740545	0.7876796314059941	1.3869413759146738	0.3257874376161766	0.9411876991300077	1.7632473273424274	0.3159843156975805	0.7313813739151495	1.8256421914954892	0.37966386998934815	0.7615852535316736	1.8117648410233602	0.2872991975977135	1.0169244174717347	1.8139012092949525	0.139878515110878	0.5888118225019778	0.9563714371947959	0.12455460402042584	0.7800444259439719	1.3979046644250146	0.13319664340194107	0.9068982168796089	1.779229695704971	0.148160791127913	0.6926369516688399	1.8188581546097338	0.07871691787030952	0.7483296451269498	1.81362846242351	0.14840815272505836	1.0093854966052371	1.8442151244646874	0.23057648928119223	0.48688413528477525	0.4279458708090335	0.2334544081001848	0.4068672529466144	0.1910973546927428	0.23632810767302706	0.39438040398602553	0.32598021962049906	0.3902770871852175	0.5790308724324457	0.5154227782718819	0.42173772730742326	0.6388812124090202	0.7829248530677068	0.43197255291082937	0.537083626937102	1.0065186781658404	0.3724430468227732	0.5015798558418122	1.1019932977222093	0.3963429610921867	0.48688705681057115	1.1088055729769055	0.4189315510215435	0.5842337501164901	1.1178906137175104	0.06461837135989268	0.5263388217099674	0.512297487708201	0.041649293568198485	0.5430007166175709	0.759605179643088	0.030683563806610914	0.4895069149611572	0.9669953268502165	0.10135615198270871	0.4609513567694996	1.0569284757682393	0.061727543626216054	0.42676191528834273	1.0663903870849523	0.02811103731481546	0.4639698494313805	1.0743530026449115
60	1.0169491525423728	0.34230368907121367	0.5978429345100008	0.9433419138165986	0.3438542233988811	0.7882085557232025	1.3868821693004636	0.32578616729448995	0.9411450568930376	1.763325076374908	0.316066094902454	0.7303591050959739	1.825214394239191	0.37497707464141267	0.7560384773005265	1.8100573108735791	0.28722823936066183	1.0168435269526424	1.813924036879115	0.14540705636807263	0.5758172546544268	0.9543171454700042	0.12530194569147643	0.7603438935823379	1.3888659162444512	0.126067620462054	0.925244191525152	1.781331380169664	0.14808173626456003	0.6934838407702607	1.8191064641741421	0.07871547300178619	0.748527410663984	1.8135307055486478	0.14743581604656855	1.0109166329417962	1.8398871747699617	0.23059603438737614	0.48668057594097425	0.42800032941060406	0.23333161980001818	0.4049750533529635	0.18827905983051746	0.23642865059798987	0.39409027805825664	0.3260873067871622	0.390297920077151	0.5788012447760389	0.5154780545761212	0.42136133652809027	0.6392854791395347	0.7790072441055617	0.43011038091772	0.5635027313318876	1.0098700151758067	0.37223381900794067	0.5008330765539145	1.1020461975902103	0.39175637470367003	0.5008672916295114	1.111473488317186	0.41495646750537857	0.5842138354641455	1.1184348170738618	0.06459394018439497	0.5263074810400281	0.5122558953944688	0.03511291079116231	0.5601376620026738	0.763807446181203	0.03449955328333636	0.4926921103982396	0.9669006179691326	0.0919981066517808	0.46999314326812497	1.0587252039797577	0.04952683142876385	0.4524775730947758	1.070787001176494	0.02187766765978986	0.4780415838439083	1.0721556256981228
61	1.0338983050847457	0.34228455901370497	0.5978386971930979	0.9433602958234234	0.342471115147343	0.7865563435547402	1.3782523999721157	0.3267061749768175	0.9395123823919375	1.75854011232322	0.3158275493182817	0.7300335689904288	1.8248162258455076	0.36926945254806864	0.7726894057421303	1.816391036092299	0.28726305040609945	1.0168207224891086	1.8135904748084255	0.13579470553733042	0.5870274936441655	0.9530877033345753	0.11920047116379838	0.7752541913481876	1.3927742014313818	0.1259735848976365	0.9252994189236909	1.7814145117281688	0.14151903550600603	0.7057035070497903	1.8202571592105596	0.07860692681511168	0.748508149138521	1.813432966640578	0.14738846984272475	1.0109159580854592	1.8398623980373723	0.23057411341251238	0.4866766899622185	0.42800262784391163	0.23351188333477652	0.4065603910000084	0.19116258488020288	0.23647174459978212	0.39408734097034304	0.32608750366077405	0.3906333445359425	0.5787336624748306	0.519066114228754	0.42134915932687106	0.6393072277955313	0.778975261381485	0.4301184464637299	0.5635186615968845	1.0099375457719744	0.3724302187892922	0.5008010055224653	1.1022078276928813	0.3964803694324539	0.48721312941458905	1.108976653405839	0.4150752384627911	0.5840841766194015	1.1183984702408192	0.06462338793605295	0.5264306989728441	0.5121239012990647	0.04279687788752148	0.5565767919756734	0.7558397373230041	0.02915662970013547	0.4774303670111277	0.9656224061911449	0.09168643890187468	0.46986291972243804	1.0584041119350538	0.04910823237472788	0.4523884450205545	1.0703232021052635	0.02174082727288683	0.4785063845576616	1.0722308930636961
62	1.0508474576271187	0.34270636379834596	0.5967559602333478	0.9397340095038179	0.3435068496287429	0.7890758145196325	1.3830048267227897	0.3258193230286134	0.940993005167078	1.763340116653302	0.31582514382394844	0.7300587709661828	1.8246825303239578	0.3744810008036382	0.7553215324563126	1.8093953083639505	0.2872416508868297	1.0171395886816557	1.8138853900151586	0.14206631350369125	0.5730777939914067	0.947719397622216	0.1254150421771213	0.7603218321668282	1.388845323003194	0.1258082410180042	0.9208130870467808	1.7803674412011794	0.14570397380024908	0.6765067469757101	1.8087085106821752	0.07867918644348189	0.7481313110928145	1.8128595427753196	0.14072970217313208	1.0294088058217403	1.846921426241006	0.23058214003161426	0.4866327809807974	0.4280506706237064	0.23360214119431424	0.40639052235240036	0.19126858906250022	0.2365718388082839	0.394065936342103	0.32615180874889177	0.390552607833383	0.5794079410559364	0.522730496492622	0.42180920772014957	0.6388824910062995	0.782892101235972	0.43002798452482843	0.5636402709792099	1.0099300600837884	0.37255344707793947	0.5004990243812336	1.1021524842245023	0.39678228335857957	0.48677307218971283	1.1088378291572942	0.4240041415643742	0.5702830136722824	1.115533104887796	0.0684504874824743	0.5308995103324238	0.5151577730512203	0.04322367954769942	0.5587486154899325	0.7595544995766211	0.028710409246832835	0.47496626621049115	0.961841496763438	0.09077335169958266	0.46797346356082486	1.0542636245680523	0.043156002472218485	0.4649321661466955	1.0721124918261522	0.02151603944358037	0.47918622463926097	1.07198197634861
